<?xml version="1.0" encoding="UTF-8"?>
<!DOCTYPE svg PUBLIC "-//W3C//DTD SVG 1.1//EN" "http://www.w3.org/Graphics/SVG/1.1/DTD/svg11.dtd">
<svg xmlns="http://www.w3.org/2000/svg" version="1.1" width="425px" height="142px" style="shape-rendering:geometricPrecision; text-rendering:geometricPrecision; image-rendering:optimizeQuality; fill-rule:evenodd; clip-rule:evenodd" xmlns:xlink="http://www.w3.org/1999/xlink">
<g><path style="opacity:1" fill="#ffc600" d="M 91.5,80.5 C 78.3438,79.5044 65.0105,79.1711 51.5,79.5C 51.5,93.8333 51.5,108.167 51.5,122.5C 43.1667,122.5 34.8333,122.5 26.5,122.5C 26.5,88.1667 26.5,53.8333 26.5,19.5C 35.1667,19.5 43.8333,19.5 52.5,19.5C 52.5,32.1667 52.5,44.8333 52.5,57.5C 65.5,57.5 78.5,57.5 91.5,57.5C 91.5,44.8333 91.5,32.1667 91.5,19.5C 99.8333,19.5 108.167,19.5 116.5,19.5C 116.5,53.8333 116.5,88.1667 116.5,122.5C 108.167,122.5 99.8333,122.5 91.5,122.5C 91.5,108.5 91.5,94.5 91.5,80.5 Z"/></g>
<g><path style="opacity:0.995" fill="#44e09b" d="M 140.5,19.5 C 156.216,19.0804 171.883,19.5804 187.5,21C 206.466,27.4179 214.299,40.5846 211,60.5C 208.078,70.4241 201.912,77.5908 192.5,82C 183.598,85.1218 174.598,86.2885 165.5,85.5C 165.5,98.1667 165.5,110.833 165.5,123.5C 157.167,123.5 148.833,123.5 140.5,123.5C 140.5,88.8333 140.5,54.1667 140.5,19.5 Z M 165.5,39.5 C 172.221,38.7513 178.554,39.9179 184.5,43C 190.194,50.2463 189.528,56.913 182.5,63C 177.02,64.9991 171.354,66.1658 165.5,66.5C 165.5,57.5 165.5,48.5 165.5,39.5 Z"/></g>
<g><path style="opacity:0.995" fill="#40b2f6" d="M 225.5,19.5 C 239.837,19.3334 254.171,19.5001 268.5,20C 306.439,27.025 321.606,49.525 314,87.5C 306.258,107.461 291.758,118.961 270.5,122C 255.521,123.131 240.521,123.631 225.5,123.5C 225.5,88.8333 225.5,54.1667 225.5,19.5 Z M 263.5,42.5 C 283.466,46.3085 291.966,58.3085 289,78.5C 285.409,89.5573 277.909,96.3907 266.5,99C 261.481,99.4108 256.481,99.9108 251.5,100.5C 251.5,81.1667 251.5,61.8333 251.5,42.5C 255.5,42.5 259.5,42.5 263.5,42.5 Z"/></g>
<g><path style="opacity:0.994" fill="#c38ffc" d="M 397.5,19.5 C 397.5,26.5 397.5,33.5 397.5,40.5C 384.167,40.5 370.833,40.5 357.5,40.5C 357.175,47.6866 357.509,54.6866 358.5,61.5C 370.167,61.5 381.833,61.5 393.5,61.5C 393.5,68.5 393.5,75.5 393.5,82.5C 381.5,82.5 369.5,82.5 357.5,82.5C 357.171,96.0105 357.504,109.344 358.5,122.5C 350.016,123.493 341.349,123.826 332.5,123.5C 332.5,88.8333 332.5,54.1667 332.5,19.5C 354.167,19.5 375.833,19.5 397.5,19.5 Z"/></g>
<g><path style="opacity:0.122" fill="#dd838a" d="M 397.5,19.5 C 398.492,26.6476 398.825,33.9809 398.5,41.5C 385.167,41.5 371.833,41.5 358.5,41.5C 358.5,48.1667 358.5,54.8333 358.5,61.5C 357.509,54.6866 357.175,47.6866 357.5,40.5C 370.833,40.5 384.167,40.5 397.5,40.5C 397.5,33.5 397.5,26.5 397.5,19.5 Z"/></g>
<g><path style="opacity:0.612" fill="#859b98" d="M 263.5,42.5 C 259.5,42.5 255.5,42.5 251.5,42.5C 251.5,61.8333 251.5,81.1667 251.5,100.5C 250.503,81.0071 250.17,61.3404 250.5,41.5C 255.032,41.1818 259.366,41.5151 263.5,42.5 Z"/></g>
<g><path style="opacity:0.122" fill="#ffa100" d="M 91.5,80.5 C 78.5,80.5 65.5,80.5 52.5,80.5C 52.8291,94.6766 52.4958,108.677 51.5,122.5C 51.5,108.167 51.5,93.8333 51.5,79.5C 65.0105,79.1711 78.3438,79.5044 91.5,80.5 Z"/></g>
<g><path style="opacity:0.122" fill="#dd838b" d="M 393.5,82.5 C 382.012,83.4949 370.345,83.8283 358.5,83.5C 358.5,96.5 358.5,109.5 358.5,122.5C 357.504,109.344 357.171,96.0105 357.5,82.5C 369.5,82.5 381.5,82.5 393.5,82.5 Z"/></g>
</svg>
